# xmcd
# 
# Track frame offsets:
#	175
#	9225
#	17892
#	30692
#	40240
#	52907
#	58417
#	70365
#	82185
#	93065
#	105122
#	120510
#	127035
#	137905
#	144915
#	158217
#	169045
#	184635
#	198685
#
# Disc length: 2738 seconds
#
# Revision: 1
# Processed by: cddbd v1.4PL0 Copyright (c) Steve Scherf et al.
# Submitted via: Audio-CD-Archiv 2.10.446
#
DISCID=000ab013
DTITLE=The King Brothers - Country and Western Songs
DYEAR=1900
DGENRE=country
TTITLE0=O Susanna
TTITLE1=The Yellow Rose Of Texas
TTITLE2=Down In The Valley
TTITLE3=Cripple Creek
TTITLE4=Tarried Song
TTITLE5=Wildwood Flower
TTITLE6=Clementine
TTITLE7=She's My Dream
TTITLE8=O Freedom
TTITLE9=Worried Man
TTITLE10=On Top Of Old Smokey
TTITLE11=Flop Eared Mule
TTITLE12=Beans Bacon And Gravy
TTITLE13=Dickson
TTITLE14=Wandering
TTITLE15=Red River Valley
TTITLE16=Tom Dooley
TTITLE17=Amazing Grace
TTITLE18=Freight Train
EXTD=
EXTT0=
EXTT1=
EXTT2=
EXTT3=
EXTT4=
EXTT5=
EXTT6=
EXTT7=
EXTT8=
EXTT9=
EXTT10=
EXTT11=
EXTT12=
EXTT13=
EXTT14=
EXTT15=
EXTT16=
EXTT17=
EXTT18=
PLAYORDER=
